<svg xmlns="http://www.w3.org/2000/svg" aria-hidden="true" style="position:absolute;width:0;height:0;overflow:hidden">
  <defs>
    <symbol id="icon-NFT-Marketplace" viewBox="0 0 305 32">
      <path d="M11.398 22.168h.603V.914h4.425v23.467H7.777L5.028 3.127h-.603v21.254H0V.914h8.649l2.749 21.254zM21.432.914h15.019v4.224H25.857v5.364h10.392v4.224H25.857v9.655h-4.425V.914zM40.819.914h16.896v4.224H51.48v19.243h-4.425V5.138H40.82V.914zM80.8.914h7.778l1.341 17.633v3.419h.805v-3.419L92.065.913h7.778V24.38H95.82V8.691l.402-5.364h-.805L93.674 24.38h-6.638l-1.81-21.053h-.805l.402 5.364V24.38H80.8V.913zM113.965 21.967c-.447 1.05-1.073 1.799-1.877 2.246-.805.425-1.743.637-2.816.637a7.21 7.21 0 0 1-2.85-.57c-.872-.38-1.643-.939-2.313-1.676s-1.207-1.632-1.609-2.682c-.38-1.05-.57-2.246-.57-3.587v-.536c0-1.319.19-2.503.57-3.553s.894-1.944 1.542-2.682a6.505 6.505 0 0 1 2.246-1.676 6.565 6.565 0 0 1 2.782-.603c1.185 0 2.134.201 2.85.603.738.402 1.319 1.028 1.743 1.877h.603V7.754h4.224v11.599c0 .67.302 1.006.905 1.006h.637v4.023h-2.883c-.76 0-1.386-.224-1.877-.67-.469-.447-.704-1.028-.704-1.743h-.603zm-3.755-1.14c1.229 0 2.213-.402 2.95-1.207.738-.827 1.106-1.944 1.106-3.352v-.402c0-1.408-.369-2.514-1.106-3.319-.738-.827-1.721-1.24-2.95-1.24s-2.213.413-2.95 1.24c-.738.805-1.106 1.911-1.106 3.319v.402c0 1.408.369 2.525 1.106 3.352.738.805 1.721 1.207 2.95 1.207zM122.926 7.753h7.04v2.414h.603c.313-.916.838-1.62 1.576-2.112.76-.514 1.665-.771 2.715-.771 1.654 0 2.984.525 3.989 1.576 1.006 1.028 1.509 2.604 1.509 4.727v.738l-4.358.402v-.469c0-.916-.235-1.643-.704-2.179-.469-.559-1.173-.838-2.112-.838s-1.676.324-2.213.972c-.536.648-.805 1.576-.805 2.782v5.364h3.822v4.023h-11.465v-4.023h3.419v-8.582h-3.017V7.754zM149.822 13.854h.805l4.425-6.101h4.626v.201l-5.364 7.61v.603l5.9 8.012v.201h-4.827l-4.761-6.504h-.805v6.504h-4.224V.913h4.224v12.94zM168.506 17.441c.021.492.134.95.335 1.374.222.402.514.76.872 1.073.379.291.805.525 1.274.704a5.036 5.036 0 0 0 1.542.235c1.05 0 1.854-.179 2.414-.536.558-.38.96-.827 1.207-1.341l3.621 2.011a7.704 7.704 0 0 1-.838 1.341c-.358.447-.827.86-1.408 1.24-.559.38-1.253.693-2.078.939-.805.246-1.755.369-2.85.369-1.253 0-2.392-.201-3.419-.603a7.708 7.708 0 0 1-2.682-1.743c-.738-.76-1.32-1.687-1.743-2.782-.402-1.095-.603-2.336-.603-3.721V15.8c0-1.274.212-2.436.637-3.486.446-1.05 1.05-1.944 1.81-2.682a8.06 8.06 0 0 1 2.648-1.71 8.508 8.508 0 0 1 3.285-.637c1.429 0 2.659.257 3.688.771 1.027.492 1.877 1.129 2.548 1.911a7.338 7.338 0 0 1 1.475 2.548c.312.916.469 1.81.469 2.682v2.246h-12.203zm3.989-6.336c-1.073 0-1.944.279-2.615.838-.67.536-1.106 1.162-1.307 1.877h7.845c-.134-.782-.559-1.43-1.274-1.944-.693-.514-1.576-.771-2.648-.771zM184.841 7.753h4.928V.914h4.224v6.839h6.001v4.023h-6.001v7.576c0 .67.302 1.006.905 1.006h4.492v4.023h-7.04c-.759 0-1.385-.246-1.877-.738-.469-.492-.704-1.117-.704-1.877v-9.99h-4.928V7.753zM209.19 31.085h-4.224V7.752h4.224v2.414h.603a4.82 4.82 0 0 1 1.944-2.112c.849-.514 1.934-.771 3.252-.771.983 0 1.911.19 2.782.57.894.38 1.666.939 2.313 1.676.67.715 1.196 1.598 1.576 2.648.402 1.05.603 2.246.603 3.587v.603c0 1.363-.19 2.57-.57 3.621s-.894 1.944-1.542 2.682a6.534 6.534 0 0 1-2.313 1.643c-.872.358-1.821.536-2.85.536-.76 0-1.419-.078-1.978-.235s-1.05-.369-1.475-.637a5.148 5.148 0 0 1-1.039-.905 8.396 8.396 0 0 1-.704-1.106h-.603v9.118zm4.425-10.258c1.318 0 2.38-.402 3.185-1.207.827-.827 1.24-1.944 1.24-3.352v-.402c0-1.408-.413-2.514-1.24-3.319-.805-.827-1.867-1.24-3.185-1.24s-2.391.425-3.218 1.274c-.805.827-1.207 1.922-1.207 3.285v.402c0 1.363.402 2.47 1.207 3.319.827.827 1.9 1.24 3.218 1.24zM226.264 20.358h5.833V4.937h-5.632V.914h9.856v19.444h5.431v4.023h-15.488v-4.023zM257.652 21.967c-.446 1.05-1.073 1.799-1.877 2.246-.805.425-1.743.637-2.816.637a7.213 7.213 0 0 1-2.85-.57c-.872-.38-1.643-.939-2.313-1.676s-1.207-1.632-1.609-2.682c-.379-1.05-.57-2.246-.57-3.587v-.536c0-1.319.19-2.503.57-3.553.381-1.05.894-1.944 1.542-2.682a6.514 6.514 0 0 1 2.246-1.676 6.568 6.568 0 0 1 2.782-.603c1.186 0 2.135.201 2.85.603.738.402 1.32 1.028 1.743 1.877h.603V7.754h4.224v11.599c0 .67.302 1.006.905 1.006h.637v4.023h-2.883c-.759 0-1.385-.224-1.877-.67-.469-.447-.704-1.028-.704-1.743h-.603zm-3.755-1.14c1.23 0 2.213-.402 2.95-1.207.738-.827 1.106-1.944 1.106-3.352v-.402c0-1.408-.369-2.514-1.106-3.319-.738-.827-1.72-1.24-2.95-1.24-1.228 0-2.213.413-2.95 1.24-.738.805-1.106 1.911-1.106 3.319v.402c0 1.408.369 2.525 1.106 3.352.738.805 1.722 1.207 2.95 1.207zM283.643 18.279c-.379 1.967-1.285 3.554-2.715 4.76-1.408 1.207-3.296 1.81-5.666 1.81-1.23 0-2.38-.19-3.453-.57-1.05-.38-1.967-.928-2.749-1.643s-1.397-1.598-1.844-2.648c-.446-1.05-.67-2.246-.67-3.587v-.402c0-1.341.224-2.548.67-3.621s1.062-1.989 1.844-2.749a8.38 8.38 0 0 1 2.782-1.743 9.666 9.666 0 0 1 3.419-.603c2.324 0 4.201.603 5.632 1.81 1.452 1.207 2.37 2.794 2.749 4.76l-4.157 1.073c-.134-.983-.559-1.833-1.274-2.548s-1.72-1.073-3.017-1.073c-.603 0-1.173.112-1.71.335s-1.006.548-1.408.972a4.49 4.49 0 0 0-.972 1.509c-.224.581-.335 1.24-.335 1.978v.201c0 .738.111 1.397.335 1.978.245.559.57 1.028.972 1.408s.872.67 1.408.872a5.363 5.363 0 0 0 1.71.268c1.297 0 2.28-.324 2.95-.972.693-.648 1.14-1.52 1.341-2.615l4.157 1.039zM291.666 17.441c.023.492.134.95.335 1.374.224.402.514.76.872 1.073.379.291.805.525 1.274.704a5.041 5.041 0 0 0 1.542.235c1.05 0 1.854-.179 2.414-.536.559-.38.962-.827 1.207-1.341l3.621 2.011c-.201.425-.48.872-.838 1.341-.358.447-.827.86-1.408 1.24-.559.38-1.251.693-2.078.939-.805.246-1.754.369-2.85.369-1.251 0-2.391-.201-3.419-.603s-1.922-.983-2.682-1.743c-.738-.76-1.318-1.687-1.743-2.782-.402-1.095-.603-2.336-.603-3.721V15.8c0-1.274.212-2.436.637-3.486.446-1.05 1.05-1.944 1.81-2.682s1.643-1.307 2.648-1.71a8.516 8.516 0 0 1 3.285-.637c1.431 0 2.659.257 3.688.771 1.029.492 1.877 1.129 2.548 1.911a7.307 7.307 0 0 1 1.475 2.548c.312.916.469 1.81.469 2.682v2.246h-12.203zm3.99-6.336c-1.073 0-1.944.279-2.615.838-.67.536-1.106 1.162-1.307 1.877h7.845c-.134-.782-.559-1.43-1.274-1.944-.693-.514-1.576-.771-2.648-.771z"/>
    </symbol>
    <symbol id="icon-Basketball" viewBox="0 0 32 32">
      <path stroke-linecap="round" stroke-linejoin="round" stroke-width=".96" d="M16 28c6.627 0 12-5.373 12-12S22.627 4 16 4 4 9.373 4 16s5.373 12 12 12z"/>
      <path stroke-linecap="round" stroke-linejoin="round" stroke-width=".96" d="M7.5 7.526a11.985 11.985 0 0 1 3.5 8.475 11.985 11.985 0 0 1-3.5 8.475M24.501 7.526a12.012 12.012 0 0 0 0 16.95M4 16h24M16 4v24"/>
    </symbol>
    <symbol id="icon-Camera" viewBox="0 0 32 32">
      <path stroke-linecap="round" stroke-linejoin="round" stroke-width=".96" d="M26 26H6a2 2 0 0 1-2-2V10a2 2 0 0 1 2-2h4l2-3h8l2 3h4a2 2 0 0 1 2 2v14a2 2 0 0 1-2 2z"/>
      <path stroke-linecap="round" stroke-linejoin="round" stroke-width=".96" d="M16 21a4.5 4.5 0 1 0 0-9 4.5 4.5 0 0 0 0 9z"/>
    </symbol>
    <symbol id="icon-MagicWand" viewBox="0 0 32 32">
      <path stroke-linecap="round" stroke-linejoin="round" stroke-width=".96" d="M27 16v6M24 19h6M10.5 5v5M8 7.5h5M21 23v4M19 25h4M23.303 4.704 4.715 23.292a.999.999 0 0 0 0 1.414L7.3 27.291a.999.999 0 0 0 1.414 0L27.302 8.703a.999.999 0 0 0 0-1.414l-2.585-2.585a.999.999 0 0 0-1.414 0zM18 10l4 4"/>
    </symbol>
    <symbol id="icon-MusicNotes" viewBox="0 0 32 32">
      <path stroke-linecap="round" stroke-linejoin="round" stroke-width=".96" d="M22.5 25a3.5 3.5 0 1 0 0-7 3.5 3.5 0 0 0 0 7zM6.5 29a3.5 3.5 0 1 0 0-7 3.5 3.5 0 0 0 0 7zM26 10l-16 4"/>
      <path stroke-linecap="round" stroke-linejoin="round" stroke-width=".96" d="M10 25.5V8l16-4v17.5"/>
    </symbol>
    <symbol id="icon-PaintBrush" viewBox="0 0 32 32">
      <path stroke-linecap="round" stroke-linejoin="round" stroke-width=".96" d="M2.5 27h9A6.5 6.5 0 1 0 5 20.5C5 25 2.5 27 2.5 27z"/>
      <path stroke-linecap="round" stroke-linejoin="round" stroke-width=".96" d="M14.05 14.525c2.4-3.237 8.5-10.65 14.075-10.65 0 5.575-7.412 11.675-10.65 14.075"/>
      <path stroke-linecap="round" stroke-linejoin="round" stroke-width=".96" d="M16.625 11.325a10.673 10.673 0 0 1 4.05 4.05"/>
    </symbol>
    <symbol id="icon-Planet" viewBox="0 0 32 32">
      <path stroke-linecap="round" stroke-linejoin="round" stroke-width=".96" d="M16 27c6.075 0 11-4.925 11-11S22.075 5 16 5 5 9.925 5 16s4.925 11 11 11z"/>
      <path stroke-linecap="round" stroke-linejoin="round" stroke-width=".96" d="M23.025 7.537c3.462-.95 6.063-.862 6.837.463 1.375 2.388-3.712 7.912-11.363 12.325S3.524 26.388 2.136 24c-.762-1.325.462-3.625 3.013-6.15"/>
    </symbol>
    <symbol id="icon-Swatches" viewBox="0 0 32 32">
      <path stroke-linecap="round" stroke-linejoin="round" stroke-width=".96" d="M4.587 21.625 7.612 4.488a.993.993 0 0 1 .76-.805.98.98 0 0 1 .389-.008l6.9 1.212a1.015 1.015 0 0 1 .813 1.162l-3.037 17.238A4.51 4.51 0 0 1 8.3 26.949c-2.487-.4-4.15-2.837-3.713-5.325z"/>
      <path stroke-linecap="round" stroke-linejoin="round" stroke-width=".96" d="m14.787 15.6 9.112-3.313a1.006 1.006 0 0 1 1.085.264c.089.097.158.212.203.336l2.4 6.575a1.004 1.004 0 0 1-.6 1.275l-16.45 5.988"/>
      <path stroke-linecap="round" stroke-linejoin="round" stroke-width=".96" d="M27.5 20.313v5.688a.997.997 0 0 1-1 1H9"/>
      <path d="M9 24a1.5 1.5 0 1 0-.001-3.001A1.5 1.5 0 0 0 9 24z"/>
    </symbol>
    <symbol id="icon-VideoCamera" viewBox="0 0 32 32">
      <path stroke-linecap="round" stroke-linejoin="round" stroke-width=".96" d="M3 7.5h16a4.003 4.003 0 0 1 4 4v12a.997.997 0 0 1-1 1H6a4.003 4.003 0 0 1-4-4v-12a.997.997 0 0 1 1-1z"/>
      <path stroke-linecap="round" stroke-linejoin="round" stroke-width=".96" d="m23 14 7-4v12l-7-4"/>
    </symbol>
    <symbol id="icon-Burger-Menu" viewBox="0 0 32 32">
      <path d="M4 16a1 1 0 0 1 1-1h22a1 1 0 0 1 0 2H5a1 1 0 0 1-1-1zM4 8a1 1 0 0 1 1-1h15a1 1 0 0 1 0 2H5a1 1 0 0 1-1-1zM4 24a1 1 0 0 1 1-1h15a1 1 0 0 1 0 2H5a1 1 0 0 1-1-1z"/>
    </symbol>
    <symbol id="icon-DiscordLogo" viewBox="0 0 33 32">
      <path d="M12.293 19.5a1.5 1.5 0 1 0-.001-3.001 1.5 1.5 0 0 0 .001 3.001zM20.293 19.5a1.5 1.5 0 1 0-.001-3.001 1.5 1.5 0 0 0 .001 3.001zM16.286 10.001a20.866 20.866 0 0 0-6.393.954 1 1 0 1 1-.598-1.908 22.85 22.85 0 0 1 6.999-1.046 22.846 22.846 0 0 1 6.999 1.046 1 1 0 1 1-.598 1.908 20.877 20.877 0 0 0-6.394-.954h-.015zM8.639 21.701a1 1 0 0 1 1.253-.655c2.069.648 4.226.97 6.393.954h.015a20.877 20.877 0 0 0 6.394-.954 1 1 0 1 1 .598 1.908A22.85 22.85 0 0 1 16.293 24a22.85 22.85 0 0 1-6.999-1.046 1 1 0 0 1-.655-1.253z"/>
      <path d="M20.512 4.81c.43-.243.935-.319 1.418-.213 1.318.286 2.607.686 3.855 1.197a1.962 1.962 0 0 1 1.179 1.286L31.2 21.224a2.015 2.015 0 0 1-.597 2.087l-.005.005c-2.067 1.799-4.869 3.161-8.051 3.941a1.973 1.973 0 0 1-2.265-1.053l-1.508-2.992a1 1 0 1 1 1.786-.9l1.514 3.002c2.938-.72 5.432-1.957 7.212-3.506l.657.754-.662-.75.004-.006a.009.009 0 0 0 0-.007L25.049 7.654l-.011-.004a21.088 21.088 0 0 0-3.532-1.098h-.002c-.003-.001-.006 0-.009.001s-.004.003-.005.006l-.985 2.98a1 1 0 0 1-1.899-.627l.99-2.996c.16-.468.486-.861.916-1.104zM11.091 6.552a.01.01 0 0 0-.009-.001h-.002a21.088 21.088 0 0 0-3.532 1.098l-.011.004-4.236 14.145v.007l.003.006c1.78 1.547 4.272 2.782 7.207 3.502l.001-.002 1.512-3a1 1 0 0 1 1.786.9l-1.508 2.992a1.976 1.976 0 0 1-2.265 1.053c-3.182-.78-5.983-2.142-8.051-3.941l-.005-.005a2.02 2.02 0 0 1-.597-2.087L5.62 7.078a1.962 1.962 0 0 1 1.179-1.286 23.011 23.011 0 0 1 3.856-1.197 2.01 2.01 0 0 1 2.333 1.317l.003.009.988 2.988a1 1 0 1 1-1.899.627l-.985-2.98a.01.01 0 0 0-.005-.006z"/>
    </symbol>
    <symbol id="icon-EnvelopeSimple" viewBox="0 0 32 32">
      <path d="M3 7a1 1 0 0 1 1-1h24a1 1 0 0 1 1 1v17a2 2 0 0 1-2 2H5a2 2 0 0 1-2-2V7zm2 1v16h22V8H5z"/>
      <path d="M3.263 6.324a1 1 0 0 1 1.413-.061L16 16.643l11.324-10.38a1 1 0 0 1 1.352 1.474l-12 11a.998.998 0 0 1-1.351 0l-12-11a1 1 0 0 1-.061-1.413z"/>
    </symbol>
    <symbol id="icon-Eye" viewBox="0 0 32 32">
      <path d="M4.543 10.793C6.927 8.409 10.668 6 16 6s9.073 2.409 11.457 4.793a18.937 18.937 0 0 1 2.608 3.268 15.742 15.742 0 0 1 .788 1.404l.042.089.012.026.004.008.001.003v.001l-.913.407c.914.406.914.407.913.407v.001l-.001.003-.004.008-.012.026a9.5 9.5 0 0 1-.201.405c-.14.267-.348.642-.629 1.088a18.888 18.888 0 0 1-2.608 3.268c-2.384 2.384-6.124 4.793-11.457 4.793s-9.073-2.409-11.457-4.793a18.937 18.937 0 0 1-2.608-3.268 15.742 15.742 0 0 1-.788-1.404l-.042-.089-.012-.026-.004-.008-.001-.003v-.001l.913-.407a84.037 84.037 0 0 1-.913-.407l.002-.004.004-.008.012-.026a9.5 9.5 0 0 1 .201-.405c.14-.267.348-.642.629-1.088a18.888 18.888 0 0 1 2.608-3.268zM2 16l-.914-.406a.999.999 0 0 0 0 .812L2 16zm1.118 0c.118.22.287.52.509.873a16.952 16.952 0 0 0 2.33 2.92C8.073 21.909 11.332 24 16 24s7.927-2.091 10.043-4.207a16.914 16.914 0 0 0 2.33-2.92c.223-.354.392-.653.509-.873a14.67 14.67 0 0 0-.509-.873 16.912 16.912 0 0 0-2.33-2.919C23.927 10.092 20.667 8.001 16 8.001s-7.927 2.091-10.043 4.207a16.95 16.95 0 0 0-2.33 2.919 13.92 13.92 0 0 0-.509.873zM30 16l.914.406a.999.999 0 0 0 0-.812L30 16z"/>
      <path d="M16 12a4 4 0 1 0 0 8 4 4 0 0 0 0-8zm-6 4a6 6 0 1 1 12 0 6 6 0 0 1-12 0z"/>
    </symbol>
    <symbol id="icon-InstagramLogo" viewBox="0 0 33 32">
      <path d="M16.293 12a4 4 0 1 0 0 8 4 4 0 0 0 0-8zm-6 4a6 6 0 1 1 12 0 6 6 0 0 1-12 0z"/>
      <path d="M10.793 5.5a5 5 0 0 0-5 5v11a5 5 0 0 0 5 5h11a5 5 0 0 0 5-5v-11a5 5 0 0 0-5-5h-11zm-7 5a7 7 0 0 1 7-7h11a7 7 0 0 1 7 7v11a7 7 0 0 1-7 7h-11a7 7 0 0 1-7-7v-11z"/>
      <path d="M22.793 11a1.5 1.5 0 1 0-.001-3.001A1.5 1.5 0 0 0 22.793 11z"/>
    </symbol>
    <symbol id="icon-RocketLaunch" viewBox="0 0 32 32">
      <path d="M9.873 19.919a1 1 0 0 1-.629 1.267c-1.695.57-2.596 1.993-3.078 3.44a9.646 9.646 0 0 0-.376 1.585 9.622 9.622 0 0 0 1.585-.376c1.447-.482 2.87-1.383 3.44-3.078a1 1 0 0 1 1.896.638c-.855 2.542-2.97 3.76-4.704 4.338a11.794 11.794 0 0 1-3.231.58l-.06.001H4.689l-.001-1-1-.001v-.027l.001-.06a9.266 9.266 0 0 1 .072-.935c.072-.599.216-1.419.508-2.295.577-1.734 1.795-3.849 4.338-4.704a1.001 1.001 0 0 1 1.267.629zm-5.185 7.394h-1a1 1 0 0 0 1 1v-1zM26.474 5.527c.167 1.161.231 4.018-2.694 6.942L16 20.249l-4.248-4.248 7.78-7.78c2.924-2.924 5.781-2.861 6.942-2.694zm.29-1.979c-1.596-.231-5.155-.233-8.646 3.258L9.63 15.294a1 1 0 0 0 0 1.414l5.662 5.663a.999.999 0 0 0 1.414 0l8.488-8.488c3.491-3.491 3.489-7.05 3.258-8.646a1.973 1.973 0 0 0-1.689-1.689z"/>
      <path d="M23.075 13.588a1 1 0 0 1 1 1V22.677a1.997 1.997 0 0 1-.595 1.395l-4.036 4.048a2 2 0 0 1-3.374-1.025l-1.05-5.237a1 1 0 1 1 1.961-.393l1.05 5.239 4.044-4.057v-8.061a1 1 0 0 1 1-1zM9.324 7.925H17.413a1 1 0 0 1 0 2H9.352l-.008.008-4.047 4.036 5.238 1.05a1 1 0 0 1-.393 1.961l-5.236-1.05h-.001a2 2 0 0 1-1.025-3.374l.002-.002L7.929 8.52c.369-.374.87-.588 1.395-.595z"/>
    </symbol>
    <symbol id="icon-Storefront" viewBox="0 0 32 32">
      <path d="M6 12.45a1 1 0 0 1 1 1V26h18V13.45a1 1 0 0 1 2 0V26a2 2 0 0 1-2 2H7a2 2 0 0 1-2-2V13.45a1 1 0 0 1 1-1zM3 5a1 1 0 0 1 1-1h24a1 1 0 0 1 0 2H4a1 1 0 0 1-1-1z"/>
      <path d="M4 7a1 1 0 0 1 1 1v2a3.004 3.004 0 0 0 3 3 3.004 3.004 0 0 0 3-3V8a1 1 0 0 1 2 0v2a5 5 0 0 1-10 0V8a1 1 0 0 1 1-1z"/>
      <path d="M12 7a1 1 0 0 1 1 1v2a3.004 3.004 0 0 0 3 3 3.004 3.004 0 0 0 3-3V8a1 1 0 0 1 2 0v2a4.997 4.997 0 0 1-5 4.999A5 5 0 0 1 11.001 10V8a1 1 0 0 1 1-1z"/>
      <path d="M20 7a1 1 0 0 1 1 1v2a3.004 3.004 0 0 0 3 3 3.004 3.004 0 0 0 3-3V8a1 1 0 0 1 2 0v2a4.997 4.997 0 0 1-5 4.999A5 5 0 0 1 19 10V8a1 1 0 0 1 1-1z"/>
    </symbol>
    <symbol id="icon-TwitterLogo" viewBox="0 0 33 32">
      <path
    fill="currentColor"
    stroke="transparent"
    stroke-linecap="round"
    stroke-linejoin="round"
    stroke-width="2"
    d="M16.293 11.001c0-2.75 2.313-5.038 5.063-5a5 5 0 0 1 4.525 3h4.413l-4.038 4.038a15.988 15.988 0 0 1-15.962 14.962c-4 0-5-1.5-5-1.5s4-1.5 6-4.5c0 0-8-4-6-15 0 0 5 5 11 6v-2z"
  />
    </symbol>
    <symbol id="icon-User" viewBox="0 0 32 32">
      <path d="M16 5a7 7 0 1 0 0 14 7 7 0 0 0 0-14zm-9 7c0-4.971 4.029-9 9-9s9 4.029 9 9-4.029 9-9 9-9-4.029-9-9z"/>
      <path d="M16 20.998a13 13 0 0 0-11.258 6.501 1 1 0 0 1-1.732-1 15.006 15.006 0 0 1 20.492-5.491 15.005 15.005 0 0 1 5.49 5.491 1 1 0 0 1-1.732 1 12.997 12.997 0 0 0-11.258-6.501z"/>
    </symbol>
    <symbol id="icon-YoutubeLogo" viewBox="0 0 33 32">
      <path d="M13.821 11.118a1 1 0 0 1 1.027.05l6 4a1 1 0 0 1 0 1.664l-6 4A1.002 1.002 0 0 1 13.293 20v-8a1 1 0 0 1 .528-.882zm1.472 2.75v4.263L18.49 16l-3.197-2.131z"/>
      <path d="M16.291 5.051h.083l.236.002a54.501 54.501 0 0 1 3.76.183c2.276.192 5.174.591 7.406 1.444l.015.006a3.021 3.021 0 0 1 1.796 2.04l.001.004c.311 1.219.706 3.478.706 7.273s-.395 6.054-.706 7.273l-.001.004a3.015 3.015 0 0 1-1.796 2.04l-.015.006c-2.231.852-5.129 1.251-7.406 1.444a54.501 54.501 0 0 1-3.76.183l-.236.002h-.162c-.055 0-.134 0-.236-.002a54.501 54.501 0 0 1-3.76-.183c-2.276-.192-5.174-.591-7.406-1.444l-.015-.006a3.021 3.021 0 0 1-1.796-2.04l-.001-.004c-.311-1.218-.706-3.478-.706-7.273s.395-6.054.706-7.273l.001-.004a3.015 3.015 0 0 1 1.796-2.04l.015-.006c2.231-.853 5.129-1.251 7.406-1.444a54.444 54.444 0 0 1 3.76-.183l.236-.002h.08zm-.003 19.9h.082c.049 0 .123 0 .219-.002a52.639 52.639 0 0 0 3.613-.176c2.236-.189 4.896-.57 6.852-1.316a1.01 1.01 0 0 0 .597-.681c.264-1.032.643-3.122.643-6.775s-.38-5.743-.643-6.775a1.009 1.009 0 0 0-.597-.681c-1.956-.745-4.616-1.127-6.852-1.316a52.58 52.58 0 0 0-3.613-.176l-.219-.002h-.153c-.049 0-.123 0-.219.002a52.639 52.639 0 0 0-3.613.176c-2.236.189-4.896.57-6.852 1.316a1.01 1.01 0 0 0-.597.681c-.264 1.032-.643 3.122-.643 6.775s.38 5.743.643 6.775a1.009 1.009 0 0 0 .597.681c1.955.745 4.616 1.127 6.852 1.316a52.58 52.58 0 0 0 3.613.176l.219.002h.071z"/>
    </symbol>
  </defs>
</svg>
